<svg width="30" height="30" viewBox="0 0 30 30" fill="none" xmlns="http://www.w3.org/2000/svg">
<path d="M27.0571 24.843C25.2723 21.7575 22.5219 19.545 19.3122 18.4962C20.8998 17.551 22.1334 16.1108 22.8233 14.3967C23.5133 12.6826 23.6215 10.7894 23.1314 9.0079C22.6412 7.22637 21.5798 5.65498 20.1102 4.53505C18.6405 3.41513 16.8439 2.80859 14.9961 2.80859C13.1484 2.80859 11.3518 3.41513 9.8821 4.53505C8.41245 5.65498 7.35105 7.22637 6.86091 9.0079C6.37077 10.7894 6.47898 12.6826 7.16893 14.3967C7.85889 16.1108 9.09243 17.551 10.6801 18.4962C7.47036 19.5438 4.71996 21.7563 2.9352 24.843C2.86975 24.9498 2.82634 25.0685 2.80752 25.1923C2.78871 25.316 2.79487 25.4423 2.82566 25.5637C2.85644 25.685 2.91122 25.799 2.98675 25.8988C3.06229 25.9986 3.15706 26.0823 3.26546 26.145C3.37387 26.2076 3.49372 26.2478 3.61794 26.2634C3.74217 26.2789 3.86824 26.2695 3.98874 26.2355C4.10924 26.2015 4.22171 26.1438 4.31952 26.0656C4.41733 25.9875 4.4985 25.8905 4.55825 25.7805C6.76606 21.9649 10.6684 19.6868 14.9961 19.6868C19.3239 19.6868 23.2262 21.9649 25.434 25.7805C25.4938 25.8905 25.5749 25.9875 25.6728 26.0656C25.7706 26.1438 25.883 26.2015 26.0035 26.2355C26.124 26.2695 26.2501 26.2789 26.3743 26.2634C26.4986 26.2478 26.6184 26.2076 26.7268 26.145C26.8352 26.0823 26.93 25.9986 27.0055 25.8988C27.0811 25.799 27.1358 25.685 27.1666 25.5637C27.1974 25.4423 27.2036 25.316 27.1847 25.1923C27.1659 25.0685 27.1225 24.9498 27.0571 24.843ZM8.43364 11.2493C8.43364 9.95134 8.81852 8.68255 9.53962 7.60335C10.2607 6.52415 11.2856 5.68302 12.4848 5.18632C13.6839 4.68962 15.0034 4.55966 16.2764 4.81288C17.5494 5.06609 18.7187 5.69111 19.6365 6.60889C20.5543 7.52667 21.1793 8.696 21.4325 9.969C21.6858 11.242 21.5558 12.5615 21.0591 13.7606C20.5624 14.9598 19.7213 15.9847 18.6421 16.7058C17.5629 17.4269 16.2941 17.8118 14.9961 17.8118C13.2562 17.8099 11.5881 17.1179 10.3578 15.8876C9.1275 14.6573 8.4355 12.9892 8.43364 11.2493Z" fill="#808080"/>
</svg>
